<?xml version="1.0" encoding="UTF-8"?>
<svg version="1.1" xmlns="http://www.w3.org/2000/svg" width="500" height="500">
<path d="M0 0 C8.71844003 -0.02312611 17.43686956 -0.04091646 26.15533352 -0.05181217 C30.20325742 -0.05704041 34.25116041 -0.06413699 38.29907227 -0.07543945 C42.20235971 -0.08627043 46.10562699 -0.09227728 50.0089283 -0.09487724 C51.50133647 -0.09673111 52.99374348 -0.100351 54.48614311 -0.10573006 C56.56948139 -0.11294331 58.65273531 -0.11399083 60.73608398 -0.11352539 C61.92411118 -0.115746 63.11213837 -0.11796661 64.33616638 -0.12025452 C67 0 67 0 68 1 C68.12653198 3.49238569 68.18519825 5.94470441 68.1875 8.4375 C68.19974609 9.13166016 68.21199219 9.82582031 68.22460938 10.54101562 C68.22989842 12.36220901 68.12169207 14.1828692 68 16 C66 18 66 18 63.89926147 18.24050903 C63.03322296 18.23606781 62.16718445 18.23162659 61.27490234 18.22705078 C60.29403656 18.22689972 59.31317078 18.22674866 58.30258179 18.22659302 C57.24108917 18.21627045 56.17959656 18.20594788 55.0859375 18.1953125 C53.45877304 18.19106766 53.45877304 18.19106766 51.79873657 18.18673706 C48.32404687 18.17551578 44.84961218 18.15040762 41.375 18.125 C39.02344121 18.11497272 36.6718784 18.10584643 34.3203125 18.09765625 C28.5467763 18.07557007 22.77343143 18.0410269 17 18 C17 22.95 17 27.9 17 33 C18.50941162 32.99476318 20.01882324 32.98952637 21.57397461 32.98413086 C27.1517681 32.96608795 32.729559 32.9545706 38.30737305 32.94506836 C40.72567172 32.94002651 43.14396733 32.93319322 45.56225586 32.92456055 C49.02979283 32.91248843 52.49728966 32.90677037 55.96484375 32.90234375 C57.05337143 32.89718246 58.14189911 32.89202118 59.26341248 32.88670349 C60.76485558 32.88659019 60.76485558 32.88659019 62.29663086 32.88647461 C63.62566689 32.88314369 63.62566689 32.88314369 64.98155212 32.87974548 C67 33 67 33 68 34 C68.17483783 36.38018742 68.28489725 38.73308232 68.3515625 41.1171875 C68.38690346 42.2398275 68.38690346 42.2398275 68.42295837 43.38514709 C68.49750585 45.88161943 68.56225043 48.37820452 68.625 50.875 C68.64779022 51.72659698 68.67058044 52.57819397 68.69406128 53.45559692 C69.23067186 74.31733513 68.67452974 95.14770077 68 116 C64.59370407 117.70314797 60.70025762 117.1541305 56.95187378 117.15821838 C56.00278078 117.16315636 55.05368778 117.16809434 54.07583439 117.17318195 C50.87591617 117.18861566 47.67601811 117.19693342 44.47607422 117.20532227 C42.19009217 117.21489618 39.90411191 117.22490596 37.61813354 117.23532104 C31.39532134 117.26242894 25.1725015 117.28340658 18.94966269 117.30332303 C12.45268446 117.32514638 5.9557299 117.35255288 -0.54122925 117.37937927 C-11.45146673 117.42367104 -22.36171217 117.4644979 -33.27197266 117.50268555 C-44.51091459 117.54203308 -55.7498457 117.58345752 -66.98876953 117.62768555 C-67.68122706 117.63040982 -68.37368459 117.63313409 -69.08712567 117.63594092 C-72.56088907 117.64962027 -76.03465231 117.66334057 -79.50841546 117.67708123 C-108.33892086 117.79106884 -137.1694505 117.89779958 -166 118 C-166.23187012 118.68626465 -166.46374023 119.3725293 -166.70263672 120.07958984 C-167.7540235 123.18015627 -168.8143896 126.27757723 -169.875 129.375 C-170.42220703 130.99535156 -170.42220703 130.99535156 -170.98046875 132.6484375 C-171.33496094 133.6796875 -171.68945312 134.7109375 -172.0546875 135.7734375 C-172.37937012 136.72653809 -172.70405273 137.67963867 -173.03857422 138.66162109 C-174 141 -174 141 -176 143 C-178.87626829 143.22507384 -181.62453024 143.32430406 -184.5 143.3125 C-185.28503906 143.32861328 -186.07007813 143.34472656 -186.87890625 143.36132812 C-189.15625 143.36328125 -189.15625 143.36328125 -193 143 C-193.66 142.01 -194.32 141.02 -195 140 C-194.48022461 137.55493164 -194.48022461 137.55493164 -193.40234375 134.66015625 C-193.01240234 133.59603516 -192.62246094 132.53191406 -192.22070312 131.43554688 C-191.79724609 130.32244141 -191.37378906 129.20933594 -190.9375 128.0625 C-190.54111328 126.98419922 -190.14472656 125.90589844 -189.73632812 124.79492188 C-183.98921069 109.29905919 -183.98921069 109.29905919 -181 103 C-180.66672793 102.29719532 -180.33345587 101.59439064 -179.99008465 100.87028885 C-176.80130884 97.87346566 -173.09310636 98.46420944 -168.94551086 98.51898193 C-168.0078141 98.51556423 -167.07011733 98.51214653 -166.10400552 98.50862527 C-162.9483434 98.50201397 -159.79352376 98.52407634 -156.63793945 98.54589844 C-154.38136821 98.54702621 -152.12479549 98.54639443 -149.8682251 98.54412842 C-143.73004104 98.54297761 -137.59216768 98.56654641 -131.45405602 98.59442425 C-125.04386472 98.61937681 -118.63366682 98.62177505 -112.22343445 98.62652588 C-101.46033309 98.63755819 -90.69736798 98.66256739 -79.93432617 98.69824219 C-68.84774345 98.7349512 -57.76119176 98.76326836 -46.67456055 98.78027344 C-45.99132673 98.78132433 -45.30809291 98.78237523 -44.60415504 98.78345796 C-41.17661482 98.78867807 -37.74907438 98.79373291 -34.3215338 98.79870558 C-5.8809438 98.84018099 22.55952198 98.91093814 51 99 C50.95112389 97.86887032 50.95112389 97.86887032 50.90126038 96.71488953 C50.75350628 93.23068718 50.6130476 89.74622524 50.47265625 86.26171875 C50.39561462 84.48323547 50.39561462 84.48323547 50.3170166 82.66882324 C49.89831775 72.05997323 50.26260137 61.58450642 51 51 C50.06705612 51.00666183 50.06705612 51.00666183 49.11526489 51.01345825 C42.65938609 51.0576024 36.20354995 51.08782918 29.74755859 51.10986328 C27.33608256 51.11993954 24.92461878 51.13360081 22.51318359 51.15087891 C19.05302915 51.1750559 15.5930358 51.18646669 12.1328125 51.1953125 C11.04944611 51.20563507 9.96607971 51.21595764 8.84988403 51.22659302 C7.8489975 51.22674408 6.84811096 51.22689514 5.81689453 51.22705078 C4.49118942 51.23371262 4.49118942 51.23371262 3.13870239 51.24050903 C1 51 1 51 -1 49 C-1.24723816 46.98864746 -1.24723816 46.98864746 -1.24291992 44.49023438 C-1.24599655 43.55586548 -1.24907318 42.62149658 -1.25224304 41.65881348 C-1.24146477 40.14160706 -1.24146477 40.14160706 -1.23046875 38.59375 C-1.23001053 37.55810913 -1.22955231 36.52246826 -1.2290802 35.45544434 C-1.22605557 33.26309058 -1.21816301 31.07073901 -1.20581055 28.87841797 C-1.18757545 25.51392034 -1.18530068 22.14969809 -1.18554688 18.78515625 C-1.18063099 16.65885178 -1.17480237 14.53254918 -1.16796875 12.40625 C-1.16685593 11.39477905 -1.1657431 10.38330811 -1.16459656 9.34118652 C-1.15821671 8.40681763 -1.15183685 7.47244873 -1.14526367 6.50976562 C-1.14145187 5.68528931 -1.13764008 4.86081299 -1.13371277 4.01135254 C-1 2 -1 2 0 0 Z " fill="#F1F3F5" transform="translate(401,231)"/>
<path d="M0 0 C0.97484848 0.00222061 1.94969696 0.00444122 2.9540863 0.00672913 C4.05515213 0.00680466 5.15621796 0.00688019 6.29064941 0.00695801 C7.48854599 0.01211929 8.68644257 0.01728058 9.92063904 0.02259827 C11.14000656 0.02401321 12.35937408 0.02542816 13.61569214 0.02688599 C17.52856349 0.03250485 21.4413786 0.04506055 25.35423279 0.05775452 C27.99941426 0.06276709 30.64459662 0.06733041 33.28977966 0.07142639 C39.79045005 0.08248041 46.2910874 0.09923688 52.79173279 0.12025452 C54.31251479 3.16181852 53.9302815 6.32309734 53.92112732 9.65931702 C53.9237558 10.82536469 53.9237558 10.82536469 53.92643738 12.01496887 C53.9308487 14.59175328 53.92792042 17.16846938 53.92454529 19.74525452 C53.92521853 21.5312247 53.92618873 23.3171948 53.92744446 25.10316467 C53.92892046 28.84910452 53.92677001 32.59502056 53.92210388 36.34095764 C53.91640665 41.14982499 53.91968618 45.95863653 53.92567635 50.76750183 C53.92928459 54.4562777 53.92814215 58.14504027 53.92554855 61.83381653 C53.92488002 63.60729479 53.92570516 65.38077424 53.92802811 67.1542511 C53.93055893 69.62993075 53.92670793 72.10551918 53.92112732 74.58119202 C53.92315155 75.31891846 53.92517578 76.0566449 53.92726135 76.81672668 C53.90599718 81.89172574 53.90599718 81.89172574 52.79173279 84.12025452 C30.35173279 84.12025452 7.91173279 84.12025452 -15.20826721 84.12025452 C-15.20826721 67.29025452 -15.20826721 50.46025452 -15.20826721 33.12025452 C1.62173279 33.12025452 18.45173279 33.12025452 35.79173279 33.12025452 C35.79173279 28.17025452 35.79173279 23.22025452 35.79173279 18.12025452 C34.12618347 18.13596497 34.12618347 18.13596497 32.42698669 18.1519928 C28.315854 18.188134 24.2047354 18.21113348 20.0934906 18.2301178 C18.31254212 18.24018883 16.53161022 18.25384637 14.75071716 18.27113342 C12.19403496 18.29533364 9.63757094 18.30672636 7.08079529 18.31556702 C6.28178802 18.32588959 5.48278076 18.33621216 4.65956116 18.34684753 C2.70216059 18.34724678 0.74530202 18.2426652 -1.20826721 18.12025452 C-3.20826721 16.12025452 -3.20826721 16.12025452 -3.43873596 12.67884827 C-3.43474632 11.30508148 -3.41999898 9.93131337 -3.39576721 8.55775452 C-3.39512268 7.85972717 -3.39447815 7.16169983 -3.39381409 6.44252014 C-3.33916217 0.1818391 -3.33916217 0.1818391 0 0 Z M1.79173279 51.12025452 C1.79173279 56.40025452 1.79173279 61.68025452 1.79173279 67.12025452 C13.01173279 67.12025452 24.23173279 67.12025452 35.79173279 67.12025452 C35.79173279 61.84025452 35.79173279 56.56025452 35.79173279 51.12025452 C24.57173279 51.12025452 13.35173279 51.12025452 1.79173279 51.12025452 Z " fill="#F1F3F5" transform="translate(342.20826721191406,230.87974548339844)"/>
<path d="M0 0 C1.6874269 0.00015917 3.37485866 0.00585622 5.06225586 0.01586914 C6.39189613 0.01799156 6.39189613 0.01799156 7.74839783 0.02015686 C10.59133215 0.02577324 13.43418892 0.03832848 16.27709961 0.05102539 C18.19962452 0.05603828 20.12215065 0.06060155 22.04467773 0.06469727 C26.7680151 0.07574798 31.49129419 0.09302356 36.21459961 0.11352539 C37.42723705 2.53880027 37.34039281 4.07212672 37.34158325 6.78234863 C37.34581299 8.25882118 37.34581299 8.25882118 37.35012817 9.76512146 C37.34709183 11.39067711 37.34709183 11.39067711 37.34399414 13.04907227 C37.34662262 14.7564431 37.34662262 14.7564431 37.3493042 16.49830627 C37.3537203 20.2763113 37.35078555 24.05426985 37.34741211 27.83227539 C37.34808522 30.44779469 37.3490553 33.06331393 37.35031128 35.67883301 C37.35213187 41.16667183 37.34972955 46.6544972 37.3449707 52.14233398 C37.33952829 58.49186706 37.34129103 64.84136803 37.34679711 71.19090033 C37.35187711 77.29272228 37.35134549 83.39452996 37.34841537 89.49635315 C37.34774635 92.09599309 37.34857367 94.69563384 37.35089493 97.29527283 C37.35342289 100.92286375 37.34957877 104.55039226 37.34399414 108.17797852 C37.34601837 109.26168228 37.3480426 110.34538605 37.35012817 111.46192932 C37.34730835 112.44624435 37.34448853 113.43055939 37.34158325 114.44470215 C37.34101771 115.73223766 37.34101771 115.73223766 37.34044075 117.045784 C37.21459961 119.11352539 37.21459961 119.11352539 36.21459961 121.11352539 C27.49615958 121.1366515 18.77773005 121.15444185 10.05926609 121.16533756 C6.01134219 121.1705658 1.9634392 121.17766238 -2.08447266 121.18896484 C-5.9877601 121.19979582 -9.89102738 121.20580267 -13.79432869 121.20840263 C-15.28673686 121.2102565 -16.77914387 121.21387639 -18.2715435 121.21925545 C-20.35488179 121.2264687 -22.4381357 121.22751622 -24.52148438 121.22705078 C-25.70951157 121.22927139 -26.89753876 121.231492 -28.12156677 121.23377991 C-30.78540039 121.11352539 -30.78540039 121.11352539 -31.78540039 120.11352539 C-31.88639527 117.38628261 -31.92510568 114.68490016 -31.91821289 111.95727539 C-31.91916962 111.13980835 -31.92012634 110.32234131 -31.92111206 109.48010254 C-31.92179384 107.74837162 -31.91993968 106.01663815 -31.91577148 104.28491211 C-31.91042318 101.62486057 -31.91571651 98.96497789 -31.92211914 96.30493164 C-31.92145836 94.62654585 -31.9201772 92.94816016 -31.91821289 91.26977539 C-31.92023712 90.4687439 -31.92226135 89.6677124 -31.92434692 88.84240723 C-31.90035118 83.22847618 -31.90035118 83.22847618 -30.78540039 82.11352539 C-28.08670989 82.04027103 -25.42037483 82.02130188 -22.72290039 82.05102539 C-20.10352539 82.07165039 -17.48415039 82.09227539 -14.78540039 82.11352539 C-14.78540039 89.37352539 -14.78540039 96.63352539 -14.78540039 104.11352539 C-3.56540039 104.11352539 7.65459961 104.11352539 19.21459961 104.11352539 C19.21459961 75.73352539 19.21459961 47.35352539 19.21459961 18.11352539 C11.95459961 18.11352539 4.69459961 18.11352539 -2.78540039 18.11352539 C-4.78540039 16.11352539 -4.78540039 16.11352539 -5.01586914 12.67211914 C-5.0118795 11.29835235 -4.99713216 9.92458425 -4.97290039 8.55102539 C-4.97225586 7.85299805 -4.97161133 7.1549707 -4.97094727 6.43579102 C-4.91605375 0.14743405 -4.91605375 0.14743405 0 0 Z " fill="#F1F3F5" transform="translate(285.785400390625,193.886474609375)"/>
<path d="M0 0 C1.48831242 0.00667405 2.97660807 0.01863442 4.46484375 0.03515625 C5.22345703 0.03966797 5.98207031 0.04417969 6.76367188 0.04882812 C8.64326246 0.06064945 10.52281274 0.07858547 12.40234375 0.09765625 C13.79751505 2.88799886 13.52189537 5.16991597 13.51586914 8.29150391 C13.51579361 9.59270172 13.51571808 10.89389954 13.51564026 12.23452759 C13.51053322 13.66025836 13.50531722 15.08598875 13.5 16.51171875 C13.49813522 17.96617586 13.4967116 19.42063359 13.49571228 20.87509155 C13.4918918 24.70558401 13.48206551 28.53603862 13.4710083 32.36651611 C13.45898689 36.96119403 13.4543897 41.55588459 13.44855499 46.15057373 C13.43885352 53.1329609 13.4196937 60.11526502 13.40234375 67.09765625 C25.28234375 67.09765625 37.16234375 67.09765625 49.40234375 67.09765625 C49.40234375 44.98765625 49.40234375 22.87765625 49.40234375 0.09765625 C54.68234375 0.09765625 59.96234375 0.09765625 65.40234375 0.09765625 C67.1426773 1.8379898 66.5283921 4.09539172 66.53787231 6.41479492 C66.53483597 7.55718628 66.53483597 7.55718628 66.53173828 8.72265625 C66.53436676 9.92015503 66.53436676 9.92015503 66.53704834 11.1418457 C66.54146742 13.79380435 66.53852867 16.44569687 66.53515625 19.09765625 C66.53582927 20.9322918 66.53679928 22.76692726 66.53805542 24.6015625 C66.53953247 28.45183153 66.53737761 32.30207741 66.53271484 36.15234375 C66.52701755 41.09922122 66.53029652 46.04604444 66.53628731 50.99291992 C66.53989273 54.7828818 66.53875442 58.57283071 66.53615952 62.36279297 C66.53549019 64.1873373 66.53631885 66.0118828 66.53863907 67.83642578 C66.54116529 70.38186786 66.53732545 72.92722084 66.53173828 75.47265625 C66.53376251 76.23425049 66.53578674 76.99584473 66.53787231 77.78051758 C66.51660633 82.98339367 66.51660633 82.98339367 65.40234375 84.09765625 C63.26034051 84.19717918 61.1150167 84.22565304 58.97070312 84.22705078 C57.96339897 84.22967926 57.96339897 84.22967926 56.93574524 84.23236084 C54.70583547 84.23677855 52.47600439 84.23384167 50.24609375 84.23046875 C48.70292139 84.23114181 47.15974914 84.23211186 45.61657715 84.23336792 C42.37832635 84.23484478 39.14010308 84.23269072 35.90185547 84.22802734 C31.74191852 84.22233005 27.58204609 84.22560912 23.42211151 84.23159981 C20.23434967 84.23520574 17.04660324 84.23406669 13.85884094 84.23147202 C12.32456963 84.23080283 10.79029693 84.23163086 9.25602722 84.23395157 C7.11530834 84.23647863 4.97469533 84.23263679 2.83398438 84.22705078 C1.00317322 84.22585739 1.00317322 84.22585739 -0.86462402 84.22463989 C-3.59765625 84.09765625 -3.59765625 84.09765625 -4.59765625 83.09765625 C-4.69803356 80.54714151 -4.73383112 78.02368446 -4.72705078 75.47265625 C-4.7288031 74.67432373 -4.73055542 73.87599121 -4.73236084 73.0534668 C-4.73677992 70.40150815 -4.73384117 67.74961563 -4.73046875 65.09765625 C-4.73114177 63.2630207 -4.73211178 61.42838524 -4.73336792 59.59375 C-4.73484497 55.74348097 -4.73269011 51.89323509 -4.72802734 48.04296875 C-4.72233005 43.09609128 -4.72560902 38.14926806 -4.73159981 33.20239258 C-4.73520523 29.4124307 -4.73406692 25.62248179 -4.73147202 21.83251953 C-4.73080269 20.0079752 -4.73163135 18.1834297 -4.73395157 16.35888672 C-4.73647779 13.81344464 -4.73263795 11.26809166 -4.72705078 8.72265625 C-4.73008713 7.58026489 -4.73008713 7.58026489 -4.73318481 6.41479492 C-4.70748758 0.12778196 -4.70748758 0.12778196 0 0 Z " fill="#F1F3F5" transform="translate(101.59765625,230.90234375)"/>
<path d="M0 0 C3.05688477 -0.35644531 3.05688477 -0.35644531 6.94140625 -0.328125 C7.62428207 -0.32625183 8.3071579 -0.32437866 9.01072693 -0.32244873 C10.45405968 -0.31572543 11.89737413 -0.30180523 13.34057617 -0.28125 C15.55729985 -0.25007314 17.77331313 -0.24027826 19.99023438 -0.234375 C30.83664069 -0.16335931 30.83664069 -0.16335931 32 1 C31.58592323 6.90627625 30.20798733 11.76671692 27.98071289 17.22021484 C27.67166519 17.99845612 27.36261749 18.77669739 27.04420471 19.57852173 C26.02958092 22.12645958 25.00148188 24.66870469 23.97265625 27.2109375 C23.26074893 28.9880599 22.549532 30.765459 21.838974 32.54312134 C20.35272057 36.25559136 18.86011331 39.96541851 17.36254883 43.67333984 C15.44132834 48.43091024 13.53315959 53.1935814 11.6292963 57.95812035 C10.16387163 61.62280704 8.69315011 65.2853483 7.22064018 68.94719315 C6.51483919 70.70339928 5.81034245 72.46013016 5.10716438 74.21738815 C4.12616006 76.6657599 3.13843202 79.1113055 2.14868164 81.55615234 C1.8582196 82.28445251 1.56775757 83.01275269 1.26849365 83.76312256 C0.09910258 86.63442152 -0.78440452 88.78440452 -3 91 C-5.96508789 91.24291992 -5.96508789 91.24291992 -9.72265625 91.23046875 C-10.38333603 91.23001053 -11.04401581 91.22955231 -11.72471619 91.2290802 C-13.12093909 91.22605921 -14.51715867 91.21817742 -15.91333008 91.20581055 C-18.05757498 91.18754196 -20.20138849 91.18530094 -22.34570312 91.18554688 C-32.85256788 91.14743212 -32.85256788 91.14743212 -34 90 C-33.56266369 83.96815378 -31.61358151 78.79417262 -29.421875 73.1953125 C-28.8769339 71.77770126 -28.8769339 71.77770126 -28.32098389 70.33145142 C-27.13795013 67.25976031 -25.94430013 64.19232625 -24.75 61.125 C-23.93245628 59.01093023 -23.11540203 56.89667112 -22.29882812 54.78222656 C-20.25880896 49.50662805 -18.20904385 44.2348851 -16.1550293 38.96472168 C-15.07088786 36.18195451 -13.98907832 33.39829498 -12.90820312 30.61425781 C-11.38728419 26.69840534 -9.86174175 22.78439885 -8.33068848 18.87249756 C-7.77963648 17.46450099 -7.22941629 16.05617857 -6.68005371 14.64752197 C-5.92591288 12.71662243 -5.16695269 10.78769719 -4.40625 8.859375 C-3.98666016 7.79170898 -3.56707031 6.72404297 -3.13476562 5.62402344 C-2 3 -2 3 0 0 Z " fill="#4DABF7" transform="translate(203,284)"/>
<path d="M0 0 C1.12535156 0.00580078 1.12535156 0.00580078 2.2734375 0.01171875 C3.02367187 0.00785156 3.77390625 0.00398437 4.546875 0 C10.14682697 0.01010822 10.14682697 0.01010822 11.2734375 1.13671875 C11.36870787 2.47744692 11.3953252 3.82314378 11.39369202 5.16725159 C11.39506668 6.03528412 11.39644135 6.90331665 11.39785767 7.7976532 C11.39426239 8.75718399 11.39066711 9.71671478 11.38696289 10.70532227 C11.38710892 11.71008606 11.38725494 12.71484985 11.3874054 13.75006104 C11.3867058 17.08860392 11.37891124 20.4270918 11.37109375 23.765625 C11.36922974 26.07348093 11.36780576 28.38133726 11.36680603 30.68919373 C11.36297954 36.77689701 11.35314815 42.86457661 11.34210205 48.95227051 C11.33189073 55.15893229 11.32730901 61.36559788 11.32226562 67.57226562 C11.311526 79.7604271 11.29444802 91.94857096 11.2734375 104.13671875 C12.20728271 104.13148193 13.14112793 104.12624512 14.10327148 104.12084961 C17.55656546 104.10384255 21.00981517 104.09128573 24.46313477 104.08178711 C25.95988668 104.07674754 27.45663366 104.06991588 28.95336914 104.0612793 C31.10043557 104.04919716 33.24743712 104.04348684 35.39453125 104.0390625 C37.33477173 104.03120728 37.33477173 104.03120728 39.31420898 104.02319336 C42.2734375 104.13671875 42.2734375 104.13671875 43.2734375 105.13671875 C43.37318782 107.64807979 43.41225933 110.1257529 43.3984375 112.63671875 C43.40423828 113.69052734 43.40423828 113.69052734 43.41015625 114.765625 C43.40005128 120.01010497 43.40005128 120.01010497 42.2734375 121.13671875 C40.77473702 121.23503021 39.27145211 121.26470331 37.76953125 121.26611328 C36.33299194 121.27084152 36.33299194 121.27084152 34.86743164 121.27566528 C33.82578857 121.27364105 32.78414551 121.27161682 31.7109375 121.26953125 C30.64931396 121.27048798 29.58769043 121.2714447 28.49389648 121.27243042 C26.24430278 121.27311239 23.99470713 121.27125694 21.74511719 121.26708984 C18.28836679 121.26174185 14.83174633 121.26703429 11.375 121.2734375 C9.19531221 121.27277672 7.0156245 121.27149557 4.8359375 121.26953125 C3.79429443 121.27155548 2.75265137 121.27357971 1.67944336 121.27566528 C0.72175049 121.27251312 -0.23594238 121.26936096 -1.22265625 121.26611328 C-2.07013428 121.26531769 -2.9176123 121.26452209 -3.79077148 121.26370239 C-5.7265625 121.13671875 -5.7265625 121.13671875 -6.7265625 120.13671875 C-6.82457903 118.59551035 -6.85288096 117.04981507 -6.85354614 115.50549316 C-6.85636597 114.50427933 -6.85918579 113.50306549 -6.86209106 112.47151184 C-6.86006683 111.36394028 -6.8580426 110.25636871 -6.85595703 109.11523438 C-6.85770935 107.95601974 -6.85946167 106.79680511 -6.86126709 105.60246277 C-6.86568845 101.74928312 -6.86274661 97.89614892 -6.859375 94.04296875 C-6.86004796 91.37878359 -6.8610162 88.71459984 -6.86227417 86.05041504 C-6.86409572 80.45824689 -6.86168995 74.86609193 -6.85693359 69.27392578 C-6.851491 62.79999373 -6.85325367 56.32609317 -6.85876 49.85216188 C-6.86329156 44.3031247 -6.86394147 38.75409701 -6.86132133 33.20505857 C-6.85975879 29.88676567 -6.85995424 26.56849089 -6.86285782 23.25019836 C-6.86538267 19.55284461 -6.86154611 15.85555228 -6.85595703 12.15820312 C-6.85798126 11.05063156 -6.86000549 9.94306 -6.86209106 8.80192566 C-6.85927124 7.80071182 -6.85645142 6.79949799 -6.85354614 5.76794434 C-6.85316912 4.89261803 -6.85279209 4.01729172 -6.85240364 3.11544037 C-6.58314231 -1.11841516 -3.54784709 0.00640406 0 0 Z " fill="#F1F3F5" transform="translate(43.7265625,193.86328125)"/>
<path d="M0 0 C8.58 0 17.16 0 26 0 C26 8.58 26 17.16 26 26 C23.51831386 27.24084307 21.83573801 27.12933103 19.0625 27.1328125 C18.08539063 27.13410156 17.10828125 27.13539063 16.1015625 27.13671875 C15.07804688 27.13285156 14.05453125 27.12898438 13 27.125 C11.97648438 27.12886719 10.95296875 27.13273437 9.8984375 27.13671875 C8.92132813 27.13542969 7.94421875 27.13414062 6.9375 27.1328125 C6.03902344 27.13168457 5.14054688 27.13055664 4.21484375 27.12939453 C2 27 2 27 0 26 C0 17.42 0 8.84 0 0 Z " fill="#F1F3F5" transform="translate(208,194)"/>
</svg>
