<?xml version="1.0" encoding="UTF-8"?>
<!DOCTYPE svg PUBLIC "-//W3C//DTD SVG 1.1//EN" "http://www.w3.org/Graphics/SVG/1.1/DTD/svg11.dtd">
<svg xmlns="http://www.w3.org/2000/svg" version="1.1" width="449px" height="228px" style="shape-rendering:geometricPrecision; text-rendering:geometricPrecision; image-rendering:optimizeQuality; fill-rule:evenodd; clip-rule:evenodd" xmlns:xlink="http://www.w3.org/1999/xlink">
<g><path style="opacity:0.778" fill="#fefffe" d="M 404.5,-0.5 C 407.167,-0.5 409.833,-0.5 412.5,-0.5C 413.74,4.81171 413.573,10.145 412,15.5C 408.212,25.7462 402.878,35.0796 396,43.5C 382.902,57.6021 368.902,70.6021 354,82.5C 349.059,91.7061 344.726,101.039 341,110.5C 350.436,101.578 361.602,97.4117 374.5,98C 372.623,100.106 370.29,101.439 367.5,102C 355.266,102.703 345.766,108.203 339,118.5C 336.744,124.675 337.077,130.675 340,136.5C 344.173,140.191 349.007,141.358 354.5,140C 361.684,137.97 368.017,134.47 373.5,129.5C 378.231,114.168 387.897,103.335 402.5,97C 406.833,96.3333 411.167,96.3333 415.5,97C 419.242,99.9864 422.408,103.486 425,107.5C 425.505,111.514 424.505,115.181 422,118.5C 418.333,122.167 414.667,125.833 411,129.5C 407.535,137.369 410.035,140.536 418.5,139C 429.582,133.921 438.915,126.588 446.5,117C 447.094,116.536 447.761,116.369 448.5,116.5C 448.5,117.167 448.5,117.833 448.5,118.5C 440.775,128.7 431.109,136.533 419.5,142C 414.108,143.973 408.775,144.307 403.5,143C 401.845,141.556 401.178,139.722 401.5,137.5C 395.562,140.201 389.396,142.201 383,143.5C 376.475,142.806 373.475,139.139 374,132.5C 361.852,144.98 348.018,147.814 332.5,141C 330.354,138.205 329.187,135.039 329,131.5C 326.913,134.673 325.079,138.006 323.5,141.5C 321.258,142.692 318.925,143.692 316.5,144.5C 315.28,144.113 314.613,143.28 314.5,142C 315.652,138.694 317.319,135.694 319.5,133C 319.167,132.833 318.833,132.667 318.5,132.5C 311.036,139.649 302.202,143.982 292,145.5C 290.491,144.91 288.991,144.244 287.5,143.5C 286.77,140.891 286.27,138.224 286,135.5C 279.264,140.968 271.597,144.301 263,145.5C 260.169,145.042 257.836,143.708 256,141.5C 255.631,138.123 255.631,134.79 256,131.5C 247.269,140.739 236.769,144.572 224.5,143C 220.207,139.2 219.374,134.7 222,129.5C 226.741,120.935 231.241,112.268 235.5,103.5C 235.5,101.5 234.5,100.5 232.5,100.5C 229.59,101.973 226.59,102.806 223.5,103C 228.098,97.898 233.764,96.2313 240.5,98C 243.287,100.167 244.12,103.001 243,106.5C 237.699,115.436 233.199,124.77 229.5,134.5C 230.444,137.725 232.611,139.392 236,139.5C 254.388,133.609 266.221,121.276 271.5,102.5C 271,101.119 270,100.453 268.5,100.5C 266.056,101.222 263.722,102.222 261.5,103.5C 260.406,102.132 260.74,100.965 262.5,100C 267.282,97.3885 272.282,96.8885 277.5,98.5C 279.902,101.3 280.068,104.3 278,107.5C 273.922,115.991 269.588,124.324 265,132.5C 263.582,136.442 264.916,138.775 269,139.5C 276.446,137.694 282.946,134.194 288.5,129C 293.83,117.999 300.163,107.665 307.5,98C 309.134,97.5065 310.801,97.3398 312.5,97.5C 309.167,107.831 304.001,117.164 297,125.5C 294.933,129.639 294.266,133.973 295,138.5C 300.923,139.871 306.423,138.705 311.5,135C 316.301,131.201 320.801,127.034 325,122.5C 330.93,112.302 336.263,101.969 341,91.5C 335.766,95.867 330.266,99.867 324.5,103.5C 323.479,102.998 323.312,102.332 324,101.5C 331.514,96.0753 338.847,90.4086 346,84.5C 356.57,63.0217 367.904,42.0217 380,21.5C 386.196,11.7953 394.363,4.46198 404.5,-0.5 Z M 400.5,5.5 C 401.822,5.33003 402.989,5.66337 404,6.5C 404.548,16.1986 402.215,25.1986 397,33.5C 386.4,49.0971 373.566,62.2638 358.5,73C 368.736,51.4663 380.569,30.9663 394,11.5C 396.063,9.26589 398.229,7.26589 400.5,5.5 Z M 405.5,99.5 C 412.101,98.1338 416.768,100.467 419.5,106.5C 411.225,114.113 404.891,123.113 400.5,133.5C 396.109,137.131 391.109,138.631 385.5,138C 385,137.5 384.5,137 384,136.5C 383.434,119.628 390.6,107.295 405.5,99.5 Z M 420.5,113.5 C 420.573,115.027 419.906,116.027 418.5,116.5C 418.427,114.973 419.094,113.973 420.5,113.5 Z M 418.5,116.5 C 418.573,118.027 417.906,119.027 416.5,119.5C 416.427,117.973 417.094,116.973 418.5,116.5 Z"/></g>
<g><path style="opacity:0.78" fill="#fefffe" d="M 22.5,227.5 C 17.8333,227.5 13.1667,227.5 8.5,227.5C 3.1864,223.87 0.186405,218.87 -0.5,212.5C -0.5,208.5 -0.5,204.5 -0.5,200.5C 2.95845,186.118 10.6251,174.284 22.5,165C 37.0709,154.963 52.9042,147.796 70,143.5C 81.1548,115.517 95.1548,89.1836 112,64.5C 112.591,63.5165 112.257,62.8499 111,62.5C 104.215,63.7788 97.3819,64.7788 90.5,65.5C 83.7673,73.4021 76.2673,80.4021 68,86.5C 66.7425,86.1501 66.4092,85.4835 67,84.5C 74.1667,78.6667 80.6667,72.1667 86.5,65C 82.5,64.6667 78.5,64.3333 74.5,64C 66.7546,63.2637 64.5879,59.4303 68,52.5C 75.8514,45.3293 85.0181,42.8293 95.5,45C 97.1519,46.47 98.1519,48.3033 98.5,50.5C 97.2372,54.1923 95.5705,57.6923 93.5,61C 97.8479,61.2379 102.181,60.9046 106.5,60C 112.975,57.5619 119.642,56.0619 126.5,55.5C 126.833,56 127.167,56.5 127.5,57C 119.474,66.8761 112.307,77.3761 106,88.5C 96.8358,106.463 88.6691,124.463 81.5,142.5C 90.6022,140.281 98.9356,136.448 106.5,131C 110.286,118.765 117.286,108.765 127.5,101C 134.294,96.8341 141.627,95.5007 149.5,97C 153.242,99.9864 156.408,103.486 159,107.5C 159.505,111.514 158.505,115.181 156,118.5C 152.333,122.167 148.667,125.833 145,129.5C 144.005,132.126 143.672,134.793 144,137.5C 149.352,140.143 154.518,139.643 159.5,136C 170.051,129.783 178.217,121.283 184,110.5C 188.387,104.768 193.887,100.602 200.5,98C 212.948,96.3104 218.115,101.81 216,114.5C 208.783,131.723 196.116,142.39 178,146.5C 172.842,146.193 168.175,144.526 164,141.5C 163.464,139.433 163.964,137.599 165.5,136C 165.167,135.833 164.833,135.667 164.5,135.5C 156.548,142.437 147.548,144.937 137.5,143C 135.845,141.556 135.178,139.722 135.5,137.5C 129.562,140.201 123.396,142.201 117,143.5C 114.546,142.802 112.213,141.802 110,140.5C 109.105,138.196 108.271,135.862 107.5,133.5C 98.7337,139.817 89.067,144.317 78.5,147C 67.8072,168.894 55.9739,190.06 43,210.5C 37.7522,218.263 30.9188,223.929 22.5,227.5 Z M 80.5,48.5 C 91.9137,47.2302 94.9137,51.5636 89.5,61.5C 84.0741,62.8426 78.9074,62.1759 74,59.5C 73.0251,53.9753 75.1918,50.3086 80.5,48.5 Z M 139.5,99.5 C 146.101,98.1338 150.768,100.467 153.5,106.5C 145.225,114.113 138.891,123.113 134.5,133.5C 130.109,137.131 125.109,138.631 119.5,138C 119,137.5 118.5,137 118,136.5C 117.452,119.734 124.619,107.401 139.5,99.5 Z M 200.5,100.5 C 203.325,100.081 205.491,101.081 207,103.5C 208.151,110.179 207.151,116.512 204,122.5C 199.171,129.695 193.338,135.861 186.5,141C 174.973,145.815 170.14,141.982 172,129.5C 177.47,125.036 181.803,119.703 185,113.5C 189.48,108.173 194.647,103.84 200.5,100.5 Z M 154.5,113.5 C 154.573,115.027 153.906,116.027 152.5,116.5C 152.427,114.973 153.094,113.973 154.5,113.5 Z M 152.5,116.5 C 152.573,118.027 151.906,119.027 150.5,119.5C 150.427,117.973 151.094,116.973 152.5,116.5 Z M 64.5,149.5 C 65.552,149.351 66.552,149.517 67.5,150C 58.8987,172.37 48.0653,193.537 35,213.5C 31.7492,217.422 27.9159,220.588 23.5,223C 16.7534,225.273 12.2534,223.106 10,216.5C 6.94341,202.839 9.27674,190.173 17,178.5C 30.2137,164.435 46.047,154.768 64.5,149.5 Z"/></g>
<g><path style="opacity:1" fill="#a03d62" d="M 251.5,68.5 C 257.204,68.1464 259.037,70.813 257,76.5C 253.102,80.8211 249.935,80.4878 247.5,75.5C 248.071,72.6873 249.404,70.354 251.5,68.5 Z"/></g>
<g><path style="opacity:0.943" fill="#fefffe" d="M 348.5,164.5 C 351.833,164.5 355.167,164.5 358.5,164.5C 358.5,179.5 358.5,194.5 358.5,209.5C 354.941,209.716 351.441,209.382 348,208.5C 337.772,212.553 331.439,209.22 329,198.5C 327.748,191.98 328.914,185.98 332.5,180.5C 337.435,175.741 342.601,175.408 348,179.5C 348.499,174.511 348.666,169.511 348.5,164.5 Z M 341.5,185.5 C 344.044,185.104 346.211,185.771 348,187.5C 348.667,191.5 348.667,195.5 348,199.5C 344.902,203.441 342.235,203.107 340,198.5C 339.055,193.939 339.555,189.606 341.5,185.5 Z"/></g>
<g><path style="opacity:0.886" fill="#fefffe" d="M 377.5,176.5 C 391.296,176.638 397.296,183.638 395.5,197.5C 389.132,197.17 382.798,197.504 376.5,198.5C 380.794,203.501 385.294,203.501 390,198.5C 391.308,200.641 392.808,202.641 394.5,204.5C 392.707,207.566 390.04,209.4 386.5,210C 369.363,211.195 362.53,203.362 366,186.5C 368.21,181.112 372.043,177.779 377.5,176.5 Z M 378.5,185.5 C 382.938,184.425 384.938,186.092 384.5,190.5C 381.482,190.665 378.482,190.498 375.5,190C 376.386,188.385 377.386,186.885 378.5,185.5 Z"/></g>
<g><path style="opacity:0.913" fill="#fefffe" d="M 397.5,177.5 C 401.167,177.5 404.833,177.5 408.5,177.5C 409.683,183.565 411.183,189.565 413,195.5C 414.345,189.784 415.845,184.118 417.5,178.5C 421.107,177.511 424.774,177.177 428.5,177.5C 425.643,187.573 422.476,197.573 419,207.5C 417.302,208.733 415.302,209.4 413,209.5C 410.906,209.464 408.906,209.131 407,208.5C 403.675,198.194 400.508,187.86 397.5,177.5 Z"/></g>
<g><path style="opacity:1" fill="#a03d62" d="M 313.5,199.5 C 321.162,199.027 323.496,202.193 320.5,209C 313.877,211.616 310.71,209.45 311,202.5C 312.045,201.627 312.878,200.627 313.5,199.5 Z"/></g>
</svg>
